<?xml version="1.0" encoding="UTF-8"?>
<!DOCTYPE svg PUBLIC "-//W3C//DTD SVG 1.1//EN" "http://www.w3.org/Graphics/SVG/1.1/DTD/svg11.dtd">
<!-- Creator: CorelDRAW 2018 (64-Bit) -->
<svg xmlns="http://www.w3.org/2000/svg" xml:space="preserve" width="135mm" height="52mm" version="1.1" style="shape-rendering:geometricPrecision; text-rendering:geometricPrecision; image-rendering:optimizeQuality; fill-rule:evenodd; clip-rule:evenodd"
viewBox="0 0 13500 5200"
 xmlns:xlink="http://www.w3.org/1999/xlink">
 <defs>
  <style type="text/css">
   <![CDATA[
    .fil1 {fill:#9D9E9E}
    .fil0 {fill:#E31E24}
    .fil2 {fill:#E31E24;fill-rule:nonzero}
   ]]>
  </style>
 </defs>
 <g id="Слой_x0020_1">
  <metadata id="CorelCorpID_0Corel-Layer"/>
  <g id="_3111813835120">
   <path class="fil0" d="M3839.98 3591.34c218.62,-271.14 349.55,-615.93 349.55,-991.34 0,-365.3 -123.97,-701.62 -332.06,-969.3l202.97 -208.6c297.4,346.36 445.31,774.61 442.31,1199.85 -2.97,423.38 -155.98,843.96 -460.25,1177.52l-202.52 -208.13zm359.97 -2312.63l330.47 -339.64c385.24,445.3 618.28,1025.9 618.28,1660.93 0,645.09 -240.6,1233.91 -636.83,1681.89l-329.98 -339.16c343.84,-372.61 516.73,-844.61 520.08,-1320 3.37,-477.21 -164.51,-957.74 -502.02,-1344.02z"/>
   <path class="fil1" d="M2608.7 60c684.42,0 1305.53,270.79 1762.27,710.96l-668.83 687.42c-283.96,-272.04 -669.15,-439.2 -1093.44,-439.2 -873.05,0 -1580.81,707.76 -1580.81,1580.82 0,873.06 707.76,1580.82 1580.81,1580.82 414.25,0 791.2,-159.4 1073.07,-420.12l669 687.59c-454.78,428.8 -1067.69,691.71 -1742.07,691.71 -1402.8,0 -2540,-1137.2 -2540,-2540 0,-1402.8 1137.2,-2540 2540,-2540z"/>
   <path class="fil0" d="M3508.52 2476.27l-1162.06 -732.17c-34.36,-20.46 -77.03,-17.05 -109.23,-17.05 -128.88,0 -128.31,99.5 -128.31,124.71l0 1496.48c0,21.31 -0.56,124.71 128.31,124.71 32.2,0 74.88,3.39 109.23,-17.05l1162.05 -732.17c95.38,-56.75 78.91,-123.73 78.91,-123.73 0,0 16.48,-66.98 -78.9,-123.73z"/>
   <path class="fil2" d="M6135.99 2440.94m1335.96 -706.32c0,-415.72 -250.24,-730.54 -667.98,-730.54 -417.74,0 -667.98,314.82 -667.98,730.54 0,415.72 250.24,730.54 667.98,730.54 417.74,0 667.98,-314.82 667.98,-730.54zm-1011.05 0c0,-284.55 133.19,-462.14 343.07,-462.14 209.88,0 343.07,177.59 343.07,462.14 0,284.54 -133.19,462.13 -343.07,462.13 -209.88,0 -343.07,-177.59 -343.07,-462.13zm1222.95 706.32m542.86 -829.42c110.99,0 165.48,68.61 165.48,191.71l0 637.71 306.74 0 0 -670c0,-262.35 -147.32,-399.57 -365.27,-399.57 -143.28,0 -268.4,64.57 -343.07,141.26l0 -117.05 -306.74 0 0 1045.36 306.74 0 0 -714.4c50.45,-60.54 141.27,-115.02 236.12,-115.02zm734.57 829.42m0 0l306.74 0 0 -1473.19 -306.74 0 0 1473.19zm559 0m28.25 0l306.75 0 0 -1045.36 -306.75 0 0 1045.36zm335 -1327.89c0,-100.9 -80.72,-177.59 -181.62,-177.59 -100.91,0 -181.63,76.69 -181.63,177.59 0,100.91 80.72,177.59 181.63,177.59 100.9,0 181.62,-76.68 181.62,-177.59zm242.18 1327.89m542.86 -829.42c110.99,0 165.48,68.61 165.48,191.71l0 637.71 306.74 0 0 -670c0,-262.35 -147.32,-399.57 -365.27,-399.57 -143.28,0 -268.4,64.57 -343.07,141.26l0 -117.05 -306.74 0 0 1045.36 306.74 0 0 -714.4c50.45,-60.54 141.27,-115.02 236.12,-115.02zm669.99 829.42m1045.36 -518.64c0,-324.91 -209.88,-550.93 -520.66,-550.93 -314.82,0 -524.7,228.04 -524.7,546.89 0,318.86 211.9,546.9 554.97,546.9 189.69,0 345.09,-74.67 450.02,-213.92l-211.89 -147.32c-54.49,74.67 -127.14,121.09 -226.03,121.09 -145.3,0 -240.15,-76.69 -262.34,-207.86l736.59 0c4.04,-24.22 4.04,-68.62 4.04,-94.85zm-520.66 -310.78c119.06,0 205.84,74.66 217.95,197.77l-439.94 0c18.16,-127.14 98.88,-197.77 221.99,-197.77z"/>
   <path class="fil2" d="M6135.99 4275.47m0 -706.32c0,441.95 276.48,730.54 688.16,730.54 266.39,0 482.32,-121.09 599.37,-326.93l-266.39 -131.17c-74.67,123.1 -181.62,189.69 -320.87,189.69 -209.88,0 -375.36,-159.42 -375.36,-462.13 0,-302.71 165.48,-462.14 375.36,-462.14 139.25,0 246.2,66.6 320.87,189.7l266.39 -131.18c-117.05,-205.84 -332.98,-326.92 -599.37,-326.92 -411.68,0 -688.16,288.58 -688.16,730.54zm1459.06 706.32m28.25 0l306.75 0 0 -1045.36 -306.75 0 0 1045.36zm335 -1327.89c0,-100.9 -80.72,-177.59 -181.62,-177.59 -100.91,0 -181.63,76.69 -181.63,177.59 0,100.91 80.72,177.59 181.63,177.59 100.9,0 181.62,-76.68 181.62,-177.59zm242.18 1327.89m542.86 -829.42c110.99,0 165.48,68.61 165.48,191.71l0 637.71 306.74 0 0 -670c0,-262.35 -147.32,-399.57 -365.27,-399.57 -143.28,0 -268.4,64.57 -343.07,141.26l0 -117.05 -306.74 0 0 1045.36 306.74 0 0 -714.4c50.45,-60.54 141.27,-115.02 236.12,-115.02zm669.99 829.42m1045.36 -518.64c0,-324.91 -209.88,-550.93 -520.66,-550.93 -314.82,0 -524.7,228.04 -524.7,546.89 0,318.86 211.9,546.9 554.97,546.9 189.69,0 345.09,-74.67 450.02,-213.92l-211.89 -147.32c-54.49,74.67 -127.14,121.09 -226.03,121.09 -145.3,0 -240.15,-76.69 -262.34,-207.86l736.59 0c4.04,-24.22 4.04,-68.62 4.04,-94.85zm-520.66 -310.78c119.06,0 205.84,74.66 217.95,197.77l-439.94 0c18.16,-127.14 98.88,-197.77 221.99,-197.77zm724.48 829.42m306.74 -732.56c46.42,-54.49 123.1,-96.86 195.75,-96.86 106.96,0 143.29,66.59 143.29,185.66l0 643.76 306.74 0 0 -617.53c0,-38.34 0,-72.65 -2.02,-108.97 44.4,-58.53 123.11,-102.92 195.76,-102.92 98.88,0 143.28,64.57 143.28,185.66l0 643.76 306.75 0 0 -680.09c0,-252.26 -119.07,-389.48 -330.97,-389.48 -161.44,0 -272.44,62.56 -363.25,151.35 -52.47,-98.88 -147.32,-151.35 -276.47,-151.35 -125.12,0 -232.08,54.48 -318.86,133.19l0 -108.98 -306.74 0 0 1045.36 306.74 0 0 -732.56zm1483.28 732.56m680.09 -554.97c-72.65,-64.58 -167.5,-98.88 -292.62,-98.88 -209.88,0 -387.47,123.1 -387.47,339.03 0,215.93 177.59,339.04 387.47,339.04 125.12,0 219.97,-34.31 292.62,-98.89l0 74.67 298.67 0 0 -619.55c0,-270.42 -125.12,-450.02 -470.21,-450.02 -169.51,0 -339.03,62.56 -450.02,161.44l169.51 163.46c62.56,-50.45 149.34,-84.75 238.14,-84.75 151.35,0 213.91,68.61 213.91,193.73l0 80.72zm0 280.51c-54.49,52.47 -129.16,78.71 -209.88,78.71 -100.9,0 -159.43,-44.4 -159.43,-119.07 0,-74.67 58.53,-119.06 159.43,-119.06 80.72,0 155.39,26.23 209.88,78.7l0 80.72z"/>
  </g>
 </g>
</svg>
